<svg xmlns="http://www.w3.org/2000/svg" viewBox="0 0 120 82" role="img" aria-label="birthday preparation illustration"><defs><style>.ln{fill:none;stroke:#17324d;stroke-width:2;stroke-linecap:round;stroke-linejoin:round}.skin{fill:#b96f48}.hair{fill:#17324d}.shirt{fill:#14958d}.sky{fill:#dff3f0}.blue{fill:#dcecf7}.cream{fill:#fff4df}.white{fill:#fff}.coral{fill:#f3a56f}.soft{fill:#9ed8e8}.green{fill:#9fd8c8}</style><g id="person"><circle class="skin" cx="52" cy="31" r="10"/><path class="hair" d="M42 29c0-8 5-13 11-13 7 0 11 5 11 12-4-3-7-5-11-5-5 0-7 3-11 6Z"/><path class="shirt" d="M39 66c1-16 6-24 13-24s13 8 14 24Z"/><path class="ln" d="M48 33c2 2 5 2 7 0M45 28h2m9 0h2"/></g></defs><rect fill="#f6eafa" width="120" height="82" rx="16"/><use href="#person" x="-20" y="4"/><path class="white" d="M61 51h45v21H61z"/><path class="coral" d="M58 47h51v10H58z"/><path class="ln" d="M61 51h45v21H61M58 47h51v10H58M73 47V34m12 13V31m12 16V35"/><path class="shirt" d="m73 29 4 5h-8zm12-3 4 5h-8zm12 4 4 5h-8z"/></svg>