<svg xmlns="http://www.w3.org/2000/svg" viewBox="0 0 120 82" role="img" aria-label="custom preparation illustration"><defs><style>.ln{fill:none;stroke:#17324d;stroke-width:2;stroke-linecap:round;stroke-linejoin:round}.skin{fill:#b96f48}.hair{fill:#17324d}.shirt{fill:#14958d}.sky{fill:#dff3f0}.blue{fill:#dcecf7}.cream{fill:#fff4df}.white{fill:#fff}.coral{fill:#f3a56f}.soft{fill:#9ed8e8}.green{fill:#9fd8c8}</style><g id="person"><circle class="skin" cx="52" cy="31" r="10"/><path class="hair" d="M42 29c0-8 5-13 11-13 7 0 11 5 11 12-4-3-7-5-11-5-5 0-7 3-11 6Z"/><path class="shirt" d="M39 66c1-16 6-24 13-24s13 8 14 24Z"/><path class="ln" d="M48 33c2 2 5 2 7 0M45 28h2m9 0h2"/></g></defs><rect class="cream" width="120" height="82" rx="16"/><use href="#person" x="-14" y="4"/><path class="soft" d="M67 23h40l7 8-7 8H67z"/><path class="coral" d="M108 45H72l-8 8 8 8h36z"/><path class="ln" d="M87 20v48M67 23h40l7 8-7 8H67m41 6H72l-8 8 8 8h36"/></svg>